<svg width="30" height="30" viewBox="0 0 30 30" fill="none" xmlns="http://www.w3.org/2000/svg">
<path d="M29.6454 17.6415C29.6454 19.2257 28.3609 20.5105 26.7767 20.5105H3.22301C1.63903 20.5105 0.354553 19.2257 0.354553 17.6415V10.7681C0.354553 9.18366 1.63903 7.89941 3.22301 7.89941H26.7767C28.3609 7.89941 29.6454 9.18366 29.6454 10.7681V17.6415Z" fill="#FFD00B"/>
<path d="M26.7767 7.89941H3.22301C1.63903 7.89941 0.354553 9.18366 0.354553 10.7681V16.4005C0.354553 17.9847 1.63903 19.2695 3.22301 19.2695H26.7767C28.3609 19.2695 29.6454 17.9847 29.6454 16.4005V10.7681C29.6454 9.18366 28.3609 7.89941 26.7767 7.89941Z" fill="#FF9C0D"/>
<path d="M26.7767 20.8651H3.22302C1.44593 20.8651 0 19.4189 0 17.6416V10.7682C0 8.99085 1.44593 7.54492 3.22302 7.54492H26.7767C28.5541 7.54492 30 8.99085 30 10.7682V17.6416C30 19.4189 28.5541 20.8651 26.7767 20.8651ZM3.22302 8.25406C1.8369 8.25406 0.709136 9.38182 0.709136 10.7682V17.6416C0.709136 19.028 1.8369 20.156 3.22302 20.156H26.7767C28.1631 20.156 29.2909 19.0282 29.2909 17.6416V10.7682C29.2909 9.38182 28.1631 8.25406 26.7767 8.25406H3.22302Z" fill="#33363A"/>
<path d="M5.67518 12.9132C5.87113 12.9132 6.02974 12.7546 6.02974 12.5587C6.02974 12.3627 5.87113 12.2041 5.67518 12.2041H3.44258C3.24662 12.2041 3.08801 12.3627 3.08801 12.5587V15.8138C3.08801 16.0098 3.24662 16.1684 3.44258 16.1684H5.67518C5.87113 16.1684 6.02974 16.0098 6.02974 15.8138V14.1859C6.02974 13.9899 5.87113 13.8313 5.67518 13.8313H4.55876C4.3628 13.8313 4.20419 13.9899 4.20419 14.1859C4.20419 14.3819 4.3628 14.5405 4.55876 14.5405H5.32061V15.4593H3.79715V12.9132H5.67518Z" fill="#33363A"/>
<path d="M9.30311 12.2041H7.07051C6.87455 12.2041 6.71594 12.3627 6.71594 12.5587V15.8138C6.71594 16.0098 6.87455 16.1684 7.07051 16.1684H9.30311C9.49907 16.1684 9.65768 16.0098 9.65768 15.8138V12.5587C9.65768 12.3627 9.49907 12.2041 9.30311 12.2041ZM8.94854 15.4593H7.42508V12.9132H8.94854V15.4593Z" fill="#33363A"/>
<path d="M12.9313 12.2041H10.6989C10.503 12.2041 10.3444 12.3627 10.3444 12.5587C10.3444 12.7546 10.503 12.9132 10.6989 12.9132H11.4605V15.8138C11.4605 16.0098 11.6192 16.1684 11.8151 16.1684C12.0111 16.1684 12.1697 16.0098 12.1697 15.8138V12.9132H12.9313C13.1272 12.9132 13.2859 12.7546 13.2859 12.5587C13.2859 12.3627 13.1272 12.2041 12.9313 12.2041Z" fill="#33363A"/>
<path d="M16.5595 12.9132C16.7554 12.9132 16.914 12.7546 16.914 12.5587C16.914 12.3627 16.7554 12.2041 16.5595 12.2041H14.3269C14.1309 12.2041 13.9723 12.3627 13.9723 12.5587V15.8138C13.9723 16.0098 14.1309 16.1684 14.3269 16.1684H16.5592C16.7552 16.1684 16.9138 16.0098 16.9138 15.8138C16.9138 15.6179 16.7552 15.4593 16.5592 15.4593H14.6814V12.9132H16.5595Z" fill="#33363A"/>
<path d="M20.1874 12.2041C19.9914 12.2041 19.8328 12.3627 19.8328 12.5587V13.8316H18.3096V12.5587C18.3096 12.3627 18.151 12.2041 17.955 12.2041C17.7591 12.2041 17.6005 12.3627 17.6005 12.5587V15.8138C17.6005 16.0098 17.7591 16.1684 17.955 16.1684C18.151 16.1684 18.3096 16.0098 18.3096 15.8138V14.5405H19.8328V15.8138C19.8328 16.0098 19.9914 16.1684 20.1874 16.1684C20.3833 16.1684 20.542 16.0098 20.542 15.8138V12.5587C20.542 12.3627 20.3833 12.2041 20.1874 12.2041Z" fill="#33363A"/>
<path d="M23.8158 12.2041H21.5832C21.3872 12.2041 21.2286 12.3627 21.2286 12.5587V15.8138C21.2286 16.0098 21.3872 16.1684 21.5832 16.1684C21.7792 16.1684 21.9378 16.0098 21.9378 15.8138V14.5405H23.4612V15.8138C23.4612 16.0098 23.6198 16.1684 23.8158 16.1684C24.0118 16.1684 24.1704 16.0098 24.1704 15.8138V12.5587C24.1704 12.3627 24.0118 12.2041 23.8158 12.2041ZM21.9378 13.8316V12.9132H23.4612V13.8316H21.9378Z" fill="#33363A"/>
<path d="M25.2112 12.2041C25.0152 12.2041 24.8566 12.3627 24.8566 12.5587V14.7797C24.8566 14.9756 25.0152 15.1342 25.2112 15.1342C25.4072 15.1342 25.5658 14.9756 25.5658 14.7797V12.5587C25.5658 12.3627 25.4072 12.2041 25.2112 12.2041Z" fill="#33363A"/>
<path d="M26.5576 12.2041C26.3616 12.2041 26.203 12.3627 26.203 12.5587V14.7797C26.203 14.9756 26.3616 15.1342 26.5576 15.1342C26.7535 15.1342 26.9121 14.9756 26.9121 14.7797V12.5587C26.9121 12.3627 26.7533 12.2041 26.5576 12.2041Z" fill="#33363A"/>
<path d="M25.2112 15.4592C25.0152 15.4592 24.8566 15.6178 24.8566 15.8138V15.8516C24.8566 16.0476 25.0152 16.2062 25.2112 16.2062C25.4072 16.2062 25.5658 16.0476 25.5658 15.8516V15.8138C25.5658 15.6181 25.4072 15.4592 25.2112 15.4592Z" fill="#33363A"/>
<path d="M26.5576 15.4592C26.3616 15.4592 26.203 15.6178 26.203 15.8138V15.8516C26.203 16.0476 26.3616 16.2062 26.5576 16.2062C26.7535 16.2062 26.9121 16.0476 26.9121 15.8516V15.8138C26.9121 15.6181 26.7533 15.4592 26.5576 15.4592Z" fill="#33363A"/>
<path d="M18.134 19.6011L15.0001 22.735L11.866 19.6011" fill="#FFD00B"/>
<path d="M15.0001 23.0895C14.9094 23.0895 14.8186 23.055 14.7493 22.9857L11.6154 19.8516C11.4769 19.7133 11.4769 19.4887 11.6154 19.3502C11.7539 19.2117 11.9783 19.2117 12.1168 19.3502L15.0001 22.2333L17.8835 19.3502C18.022 19.2117 18.2463 19.2117 18.3848 19.3502C18.5234 19.4887 18.5234 19.7133 18.3848 19.8516L15.2507 22.9855C15.1814 23.0548 15.0907 23.0895 15.0001 23.0895Z" fill="#33363A"/>
<path d="M15.0014 2.78566C14.8054 2.78566 14.6468 2.62705 14.6468 2.4311V2.19661C14.6468 2.00065 14.8054 1.84204 15.0014 1.84204C15.1973 1.84204 15.3559 2.00065 15.3559 2.19661V2.4311C15.3559 2.62705 15.1973 2.78566 15.0014 2.78566Z" fill="#33363A"/>
<path d="M15.0004 6.29943C14.8044 6.29943 14.6458 6.14058 14.6458 5.94486L14.646 4.56819C14.646 4.37247 14.8049 4.21362 15.0006 4.21362C15.1963 4.21362 15.3552 4.37247 15.3552 4.56819L15.3549 5.94486C15.3549 6.14082 15.1961 6.29943 15.0004 6.29943Z" fill="#33363A"/>
<path d="M8.53328 4.04647C8.44322 4.04647 8.35292 4.0122 8.2839 3.94388L8.11655 3.77818C7.97732 3.64037 7.97614 3.41605 8.11395 3.27682C8.25152 3.1376 8.47608 3.13642 8.6153 3.27422L8.78266 3.43993C8.92189 3.57773 8.92307 3.80206 8.78526 3.94128C8.716 4.01149 8.62452 4.04647 8.53328 4.04647Z" fill="#33363A"/>
<path d="M11.0181 6.53224C10.9273 6.53224 10.8366 6.49773 10.7673 6.42823L9.79271 5.4527C9.65443 5.31418 9.65443 5.08962 9.79294 4.95134C9.93146 4.81306 10.156 4.81306 10.2943 4.95157L11.2689 5.92711C11.4072 6.06563 11.4072 6.29019 11.2687 6.42847C11.1994 6.49749 11.1089 6.53224 11.0181 6.53224Z" fill="#33363A"/>
<path d="M21.4675 4.04741C21.3767 4.04741 21.2859 4.0129 21.2167 3.94341C21.0784 3.80489 21.0784 3.58033 21.2169 3.44205L21.3838 3.2754C21.5221 3.13712 21.7469 3.13688 21.8851 3.27564C22.0234 3.41416 22.0234 3.63872 21.8849 3.777L21.718 3.94364C21.649 4.0129 21.5582 4.04741 21.4675 4.04741Z" fill="#33363A"/>
<path d="M18.9834 6.53234C18.8928 6.53234 18.8021 6.49783 18.7328 6.4288C18.5943 6.29052 18.594 6.06596 18.7326 5.92721L19.7064 4.95191C19.8447 4.81363 20.0693 4.81292 20.208 4.95167C20.3465 5.08995 20.3468 5.31451 20.2083 5.45327L19.2344 6.42857C19.1651 6.49759 19.0741 6.53234 18.9834 6.53234Z" fill="#33363A"/>
<path d="M14.9995 28.1575C14.8035 28.1575 14.6449 27.9989 14.6449 27.8029V27.5684C14.6449 27.3725 14.8035 27.2139 14.9995 27.2139C15.1954 27.2139 15.354 27.3725 15.354 27.5684V27.8029C15.354 27.9989 15.1952 28.1575 14.9995 28.1575Z" fill="#33363A"/>
<path d="M14.9995 25.786C14.8035 25.786 14.6449 25.6272 14.6449 25.4314L14.6451 24.0548C14.6451 23.859 14.804 23.7002 14.9997 23.7002C15.1954 23.7002 15.3543 23.859 15.3543 24.0548L15.354 25.4314C15.354 25.6272 15.1952 25.786 14.9995 25.786Z" fill="#33363A"/>
<path d="M21.6343 26.8281C21.5442 26.8281 21.4539 26.7938 21.3849 26.7255L21.2176 26.5598C21.0783 26.422 21.0771 26.1977 21.215 26.0585C21.3525 25.9192 21.5771 25.9183 21.7163 26.0559L21.8837 26.2216C22.0229 26.3594 22.0241 26.5837 21.8863 26.7229C21.817 26.7931 21.7255 26.8281 21.6343 26.8281Z" fill="#33363A"/>
<path d="M19.9565 25.1521C19.8657 25.1521 19.775 25.1176 19.7057 25.0481L18.7311 24.0726C18.5928 23.9341 18.5928 23.7095 18.7314 23.5712C18.8699 23.4329 19.0942 23.4329 19.2327 23.5714L20.2073 24.547C20.3456 24.6855 20.3456 24.9101 20.2071 25.0483C20.1378 25.1176 20.0473 25.1521 19.9565 25.1521Z" fill="#33363A"/>
<path d="M8.36571 26.8281C8.27494 26.8281 8.18417 26.7936 8.11491 26.7241C7.97663 26.5856 7.97663 26.361 8.11515 26.2227L8.28203 26.0561C8.42031 25.9178 8.64511 25.9178 8.78339 26.0563C8.92167 26.1948 8.92167 26.4194 8.78315 26.5577L8.61627 26.7243C8.54725 26.7936 8.45648 26.8281 8.36571 26.8281Z" fill="#33363A"/>
<path d="M10.0428 25.1517C9.95227 25.1517 9.8615 25.1172 9.79224 25.0482C9.65372 24.9099 9.65348 24.6853 9.792 24.5466L10.7659 23.5713C10.9039 23.4328 11.1285 23.4325 11.2675 23.5711C11.406 23.7093 11.4062 23.9339 11.2677 24.0726L10.2938 25.0479C10.2246 25.117 10.1338 25.1517 10.0428 25.1517Z" fill="#33363A"/>
</svg>
