<svg width="30" height="30" viewBox="0 0 30 30" fill="none" xmlns="http://www.w3.org/2000/svg">
<g clip-path="url(#clip0)">
<path d="M22.798 29.6441L29.4329 5.05054L17.4364 12.1697V12.1702C17.4485 13.8865 16.5799 15.5663 14.9998 16.5039C13.4196 17.4415 11.5304 17.3983 10.029 16.5655L3.70605 20.3178C7.44224 24.3534 13.6243 25.3882 18.541 22.4706C18.5867 22.4433 18.6309 22.4136 18.6762 22.3864L18.7234 22.7768L22.798 29.6441Z" fill="#FFBE08"/>
<path d="M14.9997 16.5039C13.4196 17.4415 11.5304 17.3983 10.029 16.5656L4.60138 19.7871C8.26949 22.0949 13.0754 22.3228 17.0528 19.9626C21.0304 17.6018 23.1326 13.2755 22.8639 8.94946L17.4363 12.1702C17.4484 13.8865 16.5798 15.5663 14.9997 16.5039Z" fill="#FF960B"/>
<path d="M7.50365 12.3107C7.49155 10.5939 8.35966 8.91463 9.94004 7.97703C11.5197 7.03942 13.4103 7.08212 14.9108 7.91488L21.2337 4.1621C17.498 0.127056 11.3153 -0.907795 6.3993 2.01033C1.48263 4.92774 -0.571414 10.8496 1.18022 16.0623L7.50365 12.3107Z" fill="#FFBE08"/>
<path d="M9.93982 7.97678C11.5195 7.03918 13.4101 7.08187 14.9106 7.91464L20.3386 4.69315C16.6695 2.38389 11.8644 2.1569 7.88719 4.51716C3.90979 6.87789 1.80641 11.2042 2.07561 15.5307L7.50366 12.3107C7.49156 10.5937 8.35967 8.91438 9.93982 7.97678Z" fill="#FF960B"/>
<path d="M1.18023 16.4179C1.13849 16.4179 1.09627 16.4106 1.05642 16.3956C0.955616 16.3582 0.877344 16.2773 0.843189 16.1753C-0.988376 10.7249 1.27226 4.63894 6.21787 1.70398C11.1635 -1.23098 17.5884 -0.299545 21.4947 3.92003C21.5677 3.99901 21.6012 4.10669 21.5857 4.21295C21.5703 4.31921 21.5077 4.4129 21.4152 4.46769L15.0923 8.22072C14.9836 8.28523 14.8487 8.28713 14.7381 8.2257C13.2967 7.42543 11.528 7.44772 10.1215 8.28263C8.71451 9.11753 7.84782 10.6597 7.85944 12.3079C7.86039 12.4344 7.79398 12.5518 7.68535 12.6165L1.36168 16.3681C1.30618 16.4011 1.24332 16.4179 1.18023 16.4179ZM12.4595 0.710638C10.437 0.710638 8.4026 1.23482 6.581 2.31616C2.04881 5.00564 -0.0899085 10.5034 1.38469 15.5271L7.15049 12.1066C7.20813 10.2847 8.19364 8.59927 9.75837 7.67092C11.3231 6.74256 13.2747 6.68493 14.9008 7.50702L20.6662 4.08511C18.4515 1.87144 15.4687 0.710638 12.4595 0.710638Z" fill="#33363A"/>
<path d="M14.7054 10.9133C15.4383 12.1484 15.0316 13.743 13.7965 14.4754C12.562 15.2083 10.9669 14.802 10.2337 13.5665C9.50128 12.3324 9.90853 10.7364 11.1431 10.0042C12.3777 9.27103 13.9725 9.67875 14.7054 10.9133Z" fill="#FFBE08"/>
<path d="M10.2337 13.5663C9.50128 12.3322 9.90853 10.7362 11.1431 10.004C12.3777 9.2711 13.9727 9.67882 14.7054 10.9134" fill="#FF960B"/>
<path d="M12.4744 15.1965C12.2294 15.1965 11.983 15.1657 11.7391 15.1035C10.974 14.9085 10.3307 14.4268 9.92749 13.7477C9.52474 13.0692 9.41042 12.2739 9.60586 11.5089C9.80107 10.7435 10.2828 10.1005 10.9614 9.69777C12.362 8.86642 14.1793 9.32941 15.0114 10.7314C15.4144 11.4105 15.5289 12.2058 15.3335 12.9702C15.1385 13.7354 14.6568 14.3784 13.9777 14.7809C13.5157 15.0561 12.9988 15.1965 12.4744 15.1965ZM12.4656 9.99639C12.0764 9.99639 11.6827 10.0974 11.3245 10.3099C10.8091 10.6157 10.4436 11.1041 10.2954 11.6852C10.1471 12.266 10.2337 12.8697 10.5394 13.3849C10.8454 13.9007 11.334 14.2662 11.9149 14.4142C12.4955 14.5627 13.0994 14.4759 13.6148 14.1695C14.1305 13.8637 14.496 13.3756 14.6442 12.795C14.7922 12.2143 14.7054 11.6107 14.3994 11.095C13.9806 10.3889 13.2322 9.99639 12.4656 9.99639Z" fill="#33363A"/>
<path d="M5.04691 17.0013C4.92547 17.0013 4.80711 16.9392 4.7407 16.8272C4.64037 16.6581 4.69611 16.4399 4.86499 16.3396L8.02433 14.4648C8.1932 14.3647 8.41165 14.4202 8.51199 14.5891C8.61232 14.758 8.55658 14.9765 8.3877 15.0768L5.22836 16.9515C5.17119 16.9852 5.10858 17.0013 5.04691 17.0013Z" fill="#33363A"/>
<path d="M3.22669 18.0797C3.13395 18.0797 3.04169 18.0418 2.97504 17.9754C2.90886 17.9113 2.87091 17.8191 2.87091 17.7239C2.87091 17.6314 2.90886 17.5389 2.97504 17.4725C3.1081 17.3418 3.34742 17.3418 3.47787 17.4725C3.54429 17.5387 3.58224 17.6314 3.58224 17.7239C3.58224 17.8188 3.54429 17.909 3.47787 17.9754C3.41146 18.0418 3.32133 18.0797 3.22669 18.0797Z" fill="#33363A"/>
<path d="M1.56855 19.0642C1.47605 19.0642 1.38568 19.0263 1.31689 18.9599C1.25072 18.8935 1.21277 18.801 1.21277 18.7085C1.21277 18.6157 1.25072 18.5234 1.31689 18.4568C1.45209 18.324 1.68714 18.324 1.81973 18.4568C1.88615 18.5232 1.9241 18.6157 1.9241 18.7085C1.9241 18.801 1.88615 18.8932 1.81973 18.9599C1.75379 19.0263 1.66105 19.0642 1.56855 19.0642Z" fill="#33363A"/>
<path d="M16.7339 10.0655C16.6124 10.0655 16.4941 10.0031 16.4277 9.89136C16.3273 9.72224 16.3831 9.50403 16.5519 9.4037L19.7108 7.52992C19.8799 7.43006 20.0981 7.48533 20.1985 7.6542C20.2988 7.82332 20.2431 8.04153 20.0742 8.14186L16.9153 10.0156C16.8581 10.0493 16.7958 10.0655 16.7339 10.0655Z" fill="#33363A"/>
<path d="M21.7129 7.11196C21.6183 7.11196 21.5255 7.07401 21.4615 7.00784C21.3951 6.94142 21.3571 6.84892 21.3571 6.75618C21.3571 6.66154 21.3951 6.5688 21.4615 6.50263C21.5943 6.36957 21.8291 6.36957 21.9643 6.50263C22.0305 6.5688 22.0684 6.66154 22.0684 6.75618C22.0684 6.84892 22.0305 6.94119 21.9643 7.00784C21.8979 7.07401 21.8056 7.11196 21.7129 7.11196Z" fill="#33363A"/>
<path d="M23.3704 6.12755C23.249 6.12755 23.1306 6.06541 23.0642 5.95345C22.9639 5.78458 23.0196 5.56613 23.1885 5.46579L27.9882 2.61669C28.1573 2.5166 28.3755 2.5721 28.4759 2.74098C28.5762 2.90986 28.5205 3.12831 28.3516 3.22864L23.5518 6.07774C23.4949 6.11166 23.4323 6.12755 23.3704 6.12755Z" fill="#33363A"/>
<path d="M22.798 30C22.6737 30 22.5566 29.9348 22.4921 29.8259L18.4172 22.9586C18.4162 22.9569 18.415 22.955 18.4141 22.9536C13.5121 25.6718 7.27028 24.692 3.44468 20.5599C3.37163 20.4809 3.33818 20.3732 3.3536 20.267C3.36902 20.1607 3.43163 20.067 3.52414 20.0122L9.84709 16.2599C9.95572 16.1957 10.0907 16.1935 10.2012 16.2549C11.6428 17.0545 13.4118 17.0322 14.8178 16.1985C16.2251 15.3634 17.092 13.8212 17.0804 12.1732C17.0794 12.0468 17.1458 11.9294 17.2545 11.8646L29.251 4.74517C29.3755 4.67117 29.5325 4.68018 29.6478 4.76794C29.763 4.85547 29.8138 5.00418 29.7761 5.14389L23.1417 29.7369C23.1045 29.875 22.9883 29.9775 22.8464 29.9969C22.83 29.999 22.8142 30 22.798 30ZM19.0675 22.6597L22.6742 28.7381L28.8613 5.80398L17.7896 12.3738C17.7319 14.1957 16.7462 15.8814 15.1812 16.81C13.6172 17.7381 11.6654 17.795 10.0387 16.9734L4.27365 20.3948C7.97663 24.0969 13.8273 24.854 18.3593 22.1647L18.4928 22.0815C18.596 22.0193 18.7239 22.0136 18.8325 22.0665C18.9409 22.1194 19.0151 22.2235 19.0296 22.3433L19.0675 22.6597Z" fill="#33363A"/>
<path d="M21.7715 22.1625C21.6394 22.1625 21.5184 22.0892 21.4567 21.9725L18.975 17.2629C18.9058 17.1312 18.9255 16.9707 19.0246 16.8599C19.1235 16.7491 19.2808 16.7119 19.4198 16.766L21.7715 17.6879L24.1232 16.766C24.2622 16.7119 24.4195 16.7494 24.5184 16.8599C24.6175 16.9707 24.6372 17.1315 24.5679 17.2629L22.0862 21.9725C22.0248 22.0892 21.9036 22.1625 21.7715 22.1625ZM20.0505 17.7773L21.7715 21.0434L23.4925 17.7773L21.9015 18.4011C21.8175 18.4341 21.7255 18.4341 21.6415 18.4011L20.0505 17.7773Z" fill="#33363A"/>
</g>
<defs>
<clipPath id="clip0">
<rect width="30" height="30" fill="white"/>
</clipPath>
</defs>
</svg>
