<svg width="30" height="30" viewBox="0 0 30 30" fill="none" xmlns="http://www.w3.org/2000/svg">
<g clip-path="url(#clip0)">
<path d="M21.2905 1.39136H15.1876L11.8244 7.29336H14.5572L10.9722 14.5773L20.3934 6.14696H17.3327L21.2905 1.39136Z" fill="#FFD400"/>
<path d="M14.0217 3.4375L11.8244 7.29344H14.5572L10.9722 14.5773L18.1067 8.1931H15.7287L17.4313 6.14704H17.3327L19.5875 3.4375H14.0217Z" fill="#FF960B"/>
<path d="M10.972 14.9295C10.8973 14.9295 10.8222 14.9058 10.7592 14.8579C10.625 14.7558 10.5815 14.5731 10.6562 14.4219L13.9914 7.64564H11.8247C11.6993 7.64564 11.5833 7.57896 11.5202 7.47049C11.457 7.36203 11.4565 7.22821 11.5185 7.11927L14.8814 1.21727C14.9443 1.10716 15.061 1.03931 15.1876 1.03931H21.2905C21.4272 1.03931 21.5514 1.11843 21.6094 1.24192C21.6674 1.36564 21.6486 1.51167 21.5612 1.61685L18.084 5.79491H20.3935C20.5395 5.79491 20.6705 5.88506 20.7224 6.02146C20.7743 6.15787 20.7372 6.31212 20.6282 6.40955L11.2067 14.8398C11.1403 14.8995 11.0562 14.9295 10.972 14.9295ZM12.4304 6.94131H14.5572C14.6791 6.94131 14.792 7.00423 14.8561 7.1073C14.9202 7.2106 14.9267 7.33973 14.873 7.4489L12.089 13.1053L19.4717 6.49923H17.3327C17.1961 6.49923 17.0719 6.42011 17.0139 6.29662C16.9559 6.17289 16.9747 6.02686 17.062 5.92168L20.539 1.74363H15.3923L12.4304 6.94131Z" fill="#33363A"/>
<path d="M26.553 19.8179C26.553 24.6721 21.3805 28.6081 15 28.6081C8.61929 28.6081 3.44696 24.6719 3.44696 19.8179C3.44696 14.9628 8.61929 9.14526 15 9.14526C21.3805 9.14526 26.553 14.963 26.553 19.8179Z" fill="#FFBE08"/>
<path d="M26.553 19.8179C26.553 24.6721 21.3805 28.6081 15 28.6081C8.61929 28.6081 3.44696 24.6719 3.44696 19.8179C3.44696 14.9627 8.61929 11.6177 15 11.6177C21.3805 11.6179 26.553 14.963 26.553 19.8179Z" fill="#FFD400"/>
<path d="M17.4602 17.5178C17.4602 17.8448 16.3589 17.9035 15 17.9035C13.6411 17.9035 12.5398 17.8448 12.5398 17.5178C12.5398 17.1903 13.6411 16.3352 15 16.3352C16.3589 16.3352 17.4602 17.1903 17.4602 17.5178Z" fill="#FFBE08"/>
<path d="M26.553 19.8179C26.553 24.6721 21.3805 28.6081 15 28.6081C8.61929 28.6081 3.44696 24.6719 3.44696 19.8179C3.44696 14.9623 4.91689 24.1237 15 24.1237C25.0831 24.1237 26.553 14.9626 26.553 19.8179Z" fill="#FF960B"/>
<path d="M15 28.9606C8.43545 28.9606 3.09479 24.8593 3.09479 19.8182C3.09479 14.8246 8.40516 8.79346 15 8.79346C21.5948 8.79346 26.9052 14.8246 26.9052 19.818C26.9052 24.8593 21.5645 28.9606 15 28.9606ZM15 9.49755C8.79536 9.49755 3.79911 15.1434 3.79911 19.818C3.79911 24.4708 8.82376 28.2561 15 28.2561C21.1762 28.2561 26.2009 24.471 26.2009 19.818C26.2009 15.1434 21.2044 9.49755 15 9.49755Z" fill="#33363A"/>
<path d="M2.15923 11.0985C3.65826 13.5733 5.75856 15.0282 7.7903 15.2801C8.14058 12.7553 7.58558 9.82578 6.0863 7.35102C4.58727 4.87555 2.48697 3.42065 0.455465 3.16968C0.104946 5.69351 0.660189 8.62373 2.15923 11.0985Z" fill="#FFD400"/>
<path d="M0.455436 3.16968C0.105152 5.69351 0.66016 8.6235 2.15943 11.0983C3.65847 13.573 5.75876 15.0279 7.79051 15.2798L0.455436 3.16968Z" fill="#FF960B"/>
<path d="M8.12013 12.043C7.87573 10.3212 7.27658 8.63547 6.38772 7.16813C4.88117 4.68093 2.73463 3.0962 0.498396 2.8201C0.30682 2.79639 0.132851 2.93044 0.106557 3.12108C-0.271666 5.84494 0.366687 8.81907 1.85798 11.2807C2.87667 12.9631 4.19657 14.244 5.67518 14.985C5.72589 15.0103 5.77942 15.0223 5.83272 15.0223C5.96184 15.0223 6.08604 14.9512 6.14778 14.8279C6.23489 14.6542 6.16469 14.4424 5.99072 14.3553C4.63114 13.6737 3.41054 12.4844 2.46064 10.9156C2.02373 10.1946 1.66593 9.42713 1.38843 8.63524C2.82055 8.40046 4.47736 9.13226 4.27945 5.58622C4.82835 6.14076 5.33664 6.79226 5.78529 7.53297C6.62555 8.91955 7.19159 10.5132 7.42285 12.1418C7.45031 12.3344 7.62921 12.467 7.82102 12.4409C8.01354 12.4139 8.14736 12.2357 8.12013 12.043Z" fill="#33363A"/>
<path d="M27.8405 11.0985C26.3415 13.5733 24.2412 15.0282 22.2094 15.2801C21.8591 12.7553 22.4139 9.8258 23.9134 7.35104C25.4127 4.87581 27.513 3.42091 29.5447 3.17017C29.8948 5.69353 29.34 8.62375 27.8405 11.0985Z" fill="#FFD400"/>
<path d="M29.5447 3.16968C29.8948 5.69351 29.34 8.6235 27.8405 11.0983C26.3414 13.573 24.2412 15.0279 22.2094 15.2798L29.5447 3.16968Z" fill="#FF960B"/>
<path d="M29.8934 3.12128C29.8671 2.93041 29.6922 2.79682 29.5015 2.8203C27.2653 3.0964 25.1185 4.68113 23.612 7.16833C22.7229 8.63638 22.1237 10.3223 21.8798 12.0432C21.8526 12.2357 21.9864 12.4141 22.1789 12.4414C22.3742 12.4681 22.5498 12.3346 22.5771 12.1423C22.8076 10.5143 23.3741 8.92069 24.2144 7.53341C24.6631 6.79269 25.1713 6.14119 25.7202 5.58665C25.5221 9.13269 27.1791 8.4009 28.6115 8.63568C28.334 9.42757 27.9762 10.195 27.5393 10.916C26.5889 12.4853 25.3683 13.6746 24.0092 14.3557C23.8352 14.4428 23.765 14.6544 23.8521 14.8283C23.9139 14.9516 24.0381 15.0227 24.1672 15.0227C24.2203 15.0227 24.274 15.0108 24.3247 14.9854C25.8029 14.2447 27.1228 12.9637 28.1419 11.2811C29.633 8.81974 30.2716 5.84561 29.8934 3.12128Z" fill="#33363A"/>
<path d="M7.72222 22.2546C8.63154 22.2546 9.3687 21.5175 9.3687 20.6081C9.3687 19.6988 8.63154 18.9617 7.72222 18.9617C6.8129 18.9617 6.07574 19.6988 6.07574 20.6081C6.07574 21.5175 6.8129 22.2546 7.72222 22.2546Z" fill="#FF1A1A"/>
<path d="M9.36795 20.6074C9.36795 21.5162 8.63076 22.2537 7.72148 22.2537C6.81196 22.2537 6.07477 21.5162 6.07477 20.6074" fill="#D61D1D"/>
<path d="M22.2782 22.2541C23.1877 22.2541 23.925 21.5169 23.925 20.6074C23.925 19.698 23.1877 18.9607 22.2782 18.9607C21.3688 18.9607 20.6315 19.698 20.6315 20.6074C20.6315 21.5169 21.3688 22.2541 22.2782 22.2541Z" fill="#FF1A1A"/>
<path d="M23.9247 20.6074C23.9247 21.5162 23.1873 22.2537 22.278 22.2537C21.3687 22.2537 20.6313 21.5162 20.6313 20.6074" fill="#D61D1D"/>
<path d="M17.2625 18.8479C17.0681 18.8479 16.9103 19.0056 16.9103 19.2C16.9103 19.535 16.6375 19.8076 16.302 19.8076H15.9602C15.625 19.8076 15.3521 19.535 15.3521 19.2V18.8584C15.3521 18.8413 15.3496 18.8249 15.3472 18.8084L16.0774 18.4431C16.2234 18.3699 16.3002 18.206 16.2626 18.047C16.225 17.8881 16.083 17.7759 15.9198 17.7759H14.0799C13.9167 17.7759 13.7747 17.8883 13.7371 18.047C13.6996 18.2058 13.7763 18.3699 13.9224 18.4431L14.6523 18.8084C14.6499 18.8249 14.6474 18.8413 14.6474 18.8584V19.2C14.6474 19.535 14.3748 19.8076 14.0395 19.8076H13.6975C13.362 19.8076 13.0892 19.535 13.0892 19.2C13.0892 19.0056 12.9314 18.8479 12.737 18.8479C12.5426 18.8479 12.3848 19.0056 12.3848 19.2C12.3848 19.9234 12.9736 20.5119 13.6975 20.5119H14.0395C14.4189 20.5119 14.76 20.3492 14.9997 20.0912C15.2395 20.3492 15.5808 20.5119 15.9602 20.5119H16.302C17.0259 20.5119 17.6147 19.9234 17.6147 19.2C17.6147 19.0056 17.4571 18.8479 17.2625 18.8479Z" fill="#33363A"/>
<path d="M11.2056 16.468C11.2056 17.5126 10.3592 18.3582 9.31492 18.3582C8.27111 18.3582 7.42474 17.5126 7.42474 16.468C7.42474 15.424 8.27087 14.5774 9.31492 14.5774C10.359 14.5774 11.2056 15.424 11.2056 16.468Z" fill="#6D5C4D"/>
<path d="M8.37485 16.6238C8.80027 16.6238 9.14515 16.279 9.14515 15.8535C9.14515 15.4281 8.80027 15.0833 8.37485 15.0833C7.94943 15.0833 7.60455 15.4281 7.60455 15.8535C7.60455 16.279 7.94943 16.6238 8.37485 16.6238Z" fill="white"/>
<path d="M9.31491 14.2251C8.55306 14.2251 7.87973 14.6078 7.47427 15.1903C7.44962 15.2238 7.42802 15.259 7.40712 15.2952C7.19653 15.6368 7.07257 16.0378 7.07257 16.4679C7.07257 17.7045 8.07835 18.7102 9.31491 18.7102C10.5517 18.7102 11.5577 17.7045 11.5577 16.4679C11.5577 15.2311 10.5515 14.2251 9.31491 14.2251ZM9.31491 18.0059C8.67608 18.0059 8.12741 17.6143 7.89522 17.0586C8.0551 17.0544 8.24997 17.0112 8.46807 16.9661C8.55165 16.959 8.63218 16.9433 8.70966 16.9189C8.89959 16.8849 9.1029 16.8581 9.31467 16.8581C9.88118 16.8581 10.3883 17.0492 10.7348 17.0586C10.5029 17.6143 9.95396 18.0059 9.31491 18.0059Z" fill="#33363A"/>
<path d="M8.37488 16.2711C8.60555 16.2711 8.79254 16.0841 8.79254 15.8535C8.79254 15.6228 8.60555 15.4358 8.37488 15.4358C8.14421 15.4358 7.95721 15.6228 7.95721 15.8535C7.95721 16.0841 8.14421 16.2711 8.37488 16.2711Z" fill="white"/>
<path d="M22.5748 16.468C22.5748 17.5126 21.7286 18.3582 20.6846 18.3582C19.6406 18.3582 18.7942 17.5126 18.7942 16.468C18.7942 15.424 19.6403 14.5774 20.6846 14.5774C21.7286 14.5774 22.5748 15.424 22.5748 16.468Z" fill="#6D5C4D"/>
<path d="M19.7445 16.6236C20.1698 16.6236 20.5146 16.2789 20.5146 15.8536C20.5146 15.4283 20.1698 15.0835 19.7445 15.0835C19.3193 15.0835 18.9745 15.4283 18.9745 15.8536C18.9745 16.2789 19.3193 16.6236 19.7445 16.6236Z" fill="white"/>
<path d="M20.6848 14.2251C19.9235 14.2251 19.2504 14.6075 18.8449 15.1896C18.8198 15.2236 18.7977 15.2595 18.7763 15.2964C18.566 15.6377 18.4423 16.0383 18.4423 16.4679C18.4423 17.7045 19.4483 18.7102 20.6848 18.7102C21.9214 18.7102 22.9272 17.7045 22.9272 16.4679C22.9269 15.2311 21.9212 14.2251 20.6848 14.2251ZM20.6848 18.0059C20.046 18.0059 19.4971 17.6143 19.2649 17.0586C19.4267 17.0541 19.6234 17.0114 19.845 16.9654C19.9237 16.9583 19.9995 16.9436 20.0728 16.921C20.2651 16.8863 20.4702 16.8581 20.6848 16.8581C21.2513 16.8581 21.758 17.0492 22.1045 17.0586C21.8723 17.6143 21.3237 18.0059 20.6848 18.0059Z" fill="#33363A"/>
<path d="M19.7448 16.2711C19.9754 16.2711 20.1624 16.0841 20.1624 15.8535C20.1624 15.6228 19.9754 15.4358 19.7448 15.4358C19.5141 15.4358 19.3271 15.6228 19.3271 15.8535C19.3271 16.0841 19.5141 16.2711 19.7448 16.2711Z" fill="white"/>
</g>
<defs>
<clipPath id="clip0">
<rect width="30" height="30" fill="white"/>
</clipPath>
</defs>
</svg>
